<svg width="36" height="36" viewBox="0 0 36 36" fill="none" xmlns="http://www.w3.org/2000/svg">
<path fill-rule="evenodd" clip-rule="evenodd" d="M4.21469 14.3618L9.04666 21.6382L4.83196 24.437L0 17.1606L4.21469 14.3618Z" fill="white"/>
<path fill-rule="evenodd" clip-rule="evenodd" d="M10.8249 5.67973L9.09644 14.2416L4.13714 13.2404L5.86559 4.67856L10.8249 5.67973Z" fill="white"/>
<path fill-rule="evenodd" clip-rule="evenodd" d="M21.6382 4.21469L14.3618 9.04666L11.563 4.83196L18.8394 0L21.6382 4.21469Z" fill="white"/>
<path fill-rule="evenodd" clip-rule="evenodd" d="M30.3203 10.8249L21.7584 9.09645L22.7596 4.13714L31.3214 5.8656L30.3203 10.8249Z" fill="white"/>
<path fill-rule="evenodd" clip-rule="evenodd" d="M31.7853 21.6382L26.9533 14.3618L31.168 11.563L36 18.8394L31.7853 21.6382Z" fill="white"/>
<path fill-rule="evenodd" clip-rule="evenodd" d="M25.1751 30.3203L26.9036 21.7584L31.8629 22.7596L30.1344 31.3214L25.1751 30.3203Z" fill="white"/>
<path fill-rule="evenodd" clip-rule="evenodd" d="M14.3618 31.7853L21.6382 26.9533L24.437 31.168L17.1606 36L14.3618 31.7853Z" fill="white"/>
<path fill-rule="evenodd" clip-rule="evenodd" d="M5.67973 25.1751L14.2416 26.9036L13.2404 31.8629L4.67856 30.1344L5.67973 25.1751Z" fill="white"/>
</svg>
